<svg width="16" height="17" viewBox="0 0 16 17" fill="none" xmlns="http://www.w3.org/2000/svg">
<g clip-path="url(#clip0_1809_1516)">
<path d="M8 0.987305C6.41775 0.987305 4.87104 1.4565 3.55544 2.33555C2.23985 3.2146 1.21447 4.46403 0.608967 5.92584C0.00346629 7.38765 -0.15496 8.99618 0.153721 10.548C0.462403 12.0999 1.22433 13.5253 2.34315 14.6442C3.46197 15.763 4.88743 16.5249 6.43928 16.8336C7.99113 17.1423 9.59966 16.9838 11.0615 16.3783C12.5233 15.7728 13.7727 14.7475 14.6518 13.4319C15.5308 12.1163 16 10.5696 16 8.98731C15.9977 6.86628 15.1541 4.83278 13.6543 3.33298C12.1545 1.83319 10.121 0.989599 8 0.987305ZM8 15.654C6.68146 15.654 5.39253 15.263 4.2962 14.5304C3.19987 13.7979 2.34539 12.7567 1.84081 11.5385C1.33622 10.3204 1.2042 8.97991 1.46144 7.6867C1.71867 6.3935 2.35361 5.20561 3.28596 4.27326C4.21831 3.34091 5.4062 2.70597 6.6994 2.44874C7.99261 2.1915 9.33305 2.32352 10.5512 2.82811C11.7694 3.33269 12.8106 4.18718 13.5431 5.2835C14.2757 6.37983 14.6667 7.66876 14.6667 8.98731C14.6647 10.7548 13.9617 12.4494 12.7119 13.6992C11.4621 14.949 9.76752 15.652 8 15.654Z" fill="#404049"/>
<path d="M8.47865 4.36265C8.0942 4.2926 7.69906 4.30791 7.32118 4.40748C6.9433 4.50705 6.59192 4.68845 6.29191 4.93885C5.9919 5.18925 5.75059 5.50253 5.58506 5.85651C5.41952 6.2105 5.33381 6.59654 5.33398 6.98732C5.33398 7.16413 5.40422 7.3337 5.52925 7.45872C5.65427 7.58374 5.82384 7.65398 6.00065 7.65398C6.17746 7.65398 6.34703 7.58374 6.47206 7.45872C6.59708 7.3337 6.66732 7.16413 6.66732 6.98732C6.66715 6.79117 6.71026 6.5974 6.79358 6.41982C6.8769 6.24225 6.99837 6.08524 7.14933 5.96C7.30029 5.83476 7.47703 5.74437 7.66693 5.69528C7.85684 5.64619 8.05524 5.6396 8.24798 5.67598C8.51134 5.7271 8.75349 5.85557 8.94348 6.04497C9.13348 6.23438 9.2627 6.47612 9.31465 6.73932C9.36712 7.01558 9.33089 7.30137 9.21115 7.55581C9.09142 7.81025 8.8943 8.02032 8.64798 8.15598C8.2401 8.39229 7.90304 8.73366 7.67194 9.14452C7.44083 9.55537 7.32412 10.0207 7.33398 10.492V10.9873C7.33398 11.1641 7.40422 11.3337 7.52925 11.4587C7.65427 11.5837 7.82384 11.654 8.00065 11.654C8.17746 11.654 8.34703 11.5837 8.47206 11.4587C8.59708 11.3337 8.66732 11.1641 8.66732 10.9873V10.492C8.65895 10.26 8.71185 10.0299 8.8207 9.82484C8.92954 9.6198 9.09048 9.44705 9.28732 9.32398C9.77033 9.0587 10.1593 8.65029 10.4007 8.15492C10.6421 7.65955 10.7242 7.10155 10.6355 6.55767C10.5469 6.01378 10.2919 5.51071 9.90565 5.11764C9.51942 4.72458 9.0209 4.46082 8.47865 4.36265Z" fill="#404049"/>
<path d="M8.66732 12.9873C8.66732 12.6191 8.36884 12.3206 8.00065 12.3206C7.63246 12.3206 7.33398 12.6191 7.33398 12.9873C7.33398 13.3555 7.63246 13.654 8.00065 13.654C8.36884 13.654 8.66732 13.3555 8.66732 12.9873Z" fill="#404049"/>
</g>
<defs>
<clipPath id="clip0_1809_1516">
<rect width="16" height="16" fill="white" transform="translate(0 0.987305)"/>
</clipPath>
</defs>
</svg>
