<svg width="16" height="17" viewBox="0 0 16 17" fill="none" xmlns="http://www.w3.org/2000/svg">
<g clip-path="url(#clip0_1809_1504)">
<path d="M8.00065 6.32062C7.47324 6.32062 6.95766 6.47702 6.51913 6.77003C6.0806 7.06305 5.73881 7.47953 5.53697 7.96679C5.33514 8.45406 5.28233 8.99024 5.38522 9.50753C5.48812 10.0248 5.74209 10.5 6.11503 10.8729C6.48797 11.2458 6.96313 11.4998 7.48041 11.6027C7.99769 11.7056 8.53387 11.6528 9.02114 11.451C9.50841 11.2491 9.92489 10.9073 10.2179 10.4688C10.5109 10.0303 10.6673 9.5147 10.6673 8.98728C10.6673 8.28004 10.3864 7.60176 9.88627 7.10167C9.38617 6.60157 8.7079 6.32062 8.00065 6.32062ZM8.00065 10.3206C7.73694 10.3206 7.47916 10.2424 7.25989 10.0959C7.04063 9.9494 6.86973 9.74116 6.76881 9.49753C6.6679 9.25389 6.64149 8.98581 6.69294 8.72716C6.74439 8.46852 6.87137 8.23095 7.05784 8.04448C7.24431 7.85801 7.48189 7.73102 7.74053 7.67957C7.99917 7.62812 8.26726 7.65453 8.5109 7.75544C8.75453 7.85636 8.96277 8.02726 9.10928 8.24652C9.25579 8.46579 9.33399 8.72358 9.33399 8.98728C9.33399 9.34091 9.19351 9.68004 8.94346 9.93009C8.69341 10.1801 8.35427 10.3206 8.00065 10.3206Z" fill="#404049"/>
<path d="M14.1965 10.254L13.9005 10.0833C14.0338 9.35827 14.0338 8.61501 13.9005 7.88997L14.1965 7.7193C14.4241 7.58798 14.6237 7.41311 14.7837 7.20468C14.9438 6.99625 15.0612 6.75833 15.1293 6.50452C15.1974 6.2507 15.2148 5.98596 15.1806 5.72541C15.1464 5.46486 15.0612 5.2136 14.9299 4.98597C14.7985 4.75835 14.6237 4.55882 14.4152 4.39877C14.2068 4.23873 13.9689 4.12131 13.7151 4.05321C13.4612 3.98512 13.1965 3.96768 12.936 4.0019C12.6754 4.03611 12.4241 4.12132 12.1965 4.25264L11.8999 4.42397C11.3395 3.94525 10.6956 3.57414 10.0005 3.3293V2.9873C10.0005 2.45687 9.7898 1.94816 9.41473 1.57309C9.03966 1.19802 8.53095 0.987305 8.00052 0.987305C7.47008 0.987305 6.96138 1.19802 6.5863 1.57309C6.21123 1.94816 6.00052 2.45687 6.00052 2.9873V3.3293C5.30544 3.57502 4.66175 3.94704 4.10185 4.42664L3.80385 4.25397C3.34414 3.98875 2.7979 3.91702 2.28531 4.05455C1.77271 4.19207 1.33573 4.5276 1.07052 4.9873C0.8053 5.44701 0.733565 5.99325 0.871092 6.50585C1.00862 7.01845 1.34414 7.45542 1.80385 7.72064L2.09985 7.8913C1.96659 8.61634 1.96659 9.3596 2.09985 10.0846L1.80385 10.2553C1.34414 10.5205 1.00862 10.9575 0.871092 11.4701C0.733565 11.9827 0.8053 12.5289 1.07052 12.9886C1.33573 13.4483 1.77271 13.7839 2.28531 13.9214C2.7979 14.0589 3.34414 13.9872 3.80385 13.722L4.10052 13.5506C4.66103 14.0294 5.30517 14.4005 6.00052 14.6453V14.9873C6.00052 15.5177 6.21123 16.0264 6.5863 16.4015C6.96138 16.7766 7.47008 16.9873 8.00052 16.9873C8.53095 16.9873 9.03966 16.7766 9.41473 16.4015C9.7898 16.0264 10.0005 15.5177 10.0005 14.9873V14.6453C10.6956 14.3996 11.3393 14.0276 11.8992 13.548L12.1972 13.72C12.6569 13.9852 13.2031 14.0569 13.7157 13.9194C14.2283 13.7819 14.6653 13.4463 14.9305 12.9866C15.1957 12.5269 15.2675 11.9807 15.1299 11.4681C14.9924 10.9555 14.6569 10.5185 14.1972 10.2533L14.1965 10.254ZM12.4979 7.73664C12.7236 8.55468 12.7236 9.4186 12.4979 10.2366C12.4584 10.379 12.4674 10.5305 12.5234 10.6672C12.5794 10.8039 12.6792 10.9181 12.8072 10.992L13.5299 11.4093C13.6831 11.4977 13.7949 11.6434 13.8407 11.8142C13.8865 11.985 13.8626 12.1671 13.7742 12.3203C13.6858 12.4735 13.5401 12.5853 13.3693 12.6311C13.1984 12.677 13.0164 12.653 12.8632 12.5646L12.1392 12.146C12.0111 12.0718 11.862 12.0423 11.7153 12.0623C11.5687 12.0822 11.4328 12.1503 11.3292 12.256C10.7358 12.8617 9.98823 13.294 9.16718 13.506C9.02387 13.5428 8.89689 13.6263 8.80625 13.7433C8.7156 13.8602 8.66644 14.004 8.66652 14.152V14.9873C8.66652 15.1641 8.59628 15.3337 8.47126 15.4587C8.34623 15.5837 8.17666 15.654 7.99985 15.654C7.82304 15.654 7.65347 15.5837 7.52845 15.4587C7.40342 15.3337 7.33318 15.1641 7.33318 14.9873V14.1526C7.33326 14.0047 7.2841 13.8609 7.19345 13.7439C7.10281 13.627 6.97583 13.5435 6.83252 13.5066C6.01142 13.2938 5.26407 12.8606 4.67118 12.254C4.56753 12.1483 4.43168 12.0802 4.28502 12.0603C4.13837 12.0403 3.98925 12.0698 3.86118 12.144L3.13852 12.562C3.06267 12.6064 2.97878 12.6355 2.89167 12.6474C2.80456 12.6593 2.71595 12.6538 2.63095 12.6314C2.54595 12.6089 2.46624 12.5698 2.3964 12.5164C2.32656 12.463 2.26797 12.3963 2.22401 12.3202C2.18005 12.2441 2.15158 12.16 2.14025 12.0728C2.12892 11.9856 2.13494 11.897 2.15798 11.8122C2.18101 11.7273 2.2206 11.6479 2.27447 11.5784C2.32834 11.5089 2.39542 11.4508 2.47185 11.4073L3.19452 10.99C3.32248 10.9161 3.4223 10.8019 3.47829 10.6652C3.53428 10.5285 3.54327 10.377 3.50385 10.2346C3.27809 9.4166 3.27809 8.55268 3.50385 7.73464C3.54256 7.59256 3.53314 7.44166 3.47706 7.3055C3.42098 7.16934 3.32139 7.05558 3.19385 6.98197L2.47118 6.56464C2.31798 6.47623 2.20616 6.33059 2.16034 6.15974C2.11452 5.9889 2.13844 5.80684 2.22685 5.65364C2.31526 5.50043 2.4609 5.38862 2.63175 5.3428C2.80259 5.29698 2.98464 5.3209 3.13785 5.4093L3.86185 5.82797C3.98957 5.90231 4.13837 5.93211 4.28487 5.91268C4.43137 5.89326 4.56726 5.8257 4.67118 5.72064C5.26458 5.11487 6.01213 4.68265 6.83318 4.47064C6.97694 4.43368 7.10425 4.34981 7.19494 4.23231C7.28563 4.11481 7.33452 3.9704 7.33385 3.82197V2.9873C7.33385 2.81049 7.40409 2.64092 7.52911 2.5159C7.65414 2.39088 7.82371 2.32064 8.00052 2.32064C8.17733 2.32064 8.3469 2.39088 8.47192 2.5159C8.59695 2.64092 8.66718 2.81049 8.66718 2.9873V3.82197C8.66711 3.96994 8.71627 4.11373 8.80691 4.23069C8.89756 4.34765 9.02454 4.43113 9.16785 4.46797C9.98919 4.68074 10.7368 5.11389 11.3299 5.72064C11.4335 5.82628 11.5694 5.89443 11.716 5.91435C11.8627 5.93427 12.0118 5.90481 12.1399 5.83064L12.8625 5.41264C12.9384 5.36817 13.0223 5.33915 13.1094 5.32724C13.1965 5.31533 13.2851 5.32077 13.3701 5.34324C13.4551 5.36571 13.5348 5.40477 13.6046 5.45818C13.6745 5.51159 13.7331 5.57828 13.777 5.65442C13.821 5.73056 13.8495 5.81464 13.8608 5.90183C13.8721 5.98902 13.8661 6.07758 13.8431 6.16243C13.82 6.24728 13.7804 6.32674 13.7266 6.39622C13.6727 6.46571 13.6056 6.52385 13.5292 6.5673L12.8065 6.98464C12.6792 7.05844 12.5799 7.17229 12.5241 7.30843C12.4682 7.44458 12.459 7.59537 12.4979 7.7373V7.73664Z" fill="#404049"/>
</g>
<defs>
<clipPath id="clip0_1809_1504">
<rect width="16" height="16" fill="white" transform="translate(0 0.987305)"/>
</clipPath>
</defs>
</svg>
