<svg width="16" height="17" viewBox="0 0 16 17" fill="none" xmlns="http://www.w3.org/2000/svg">
<g clip-path="url(#clip0_1809_1508)">
<path d="M8 8.98731C8.79113 8.98731 9.56448 8.75271 10.2223 8.31318C10.8801 7.87366 11.3928 7.24894 11.6955 6.51804C11.9983 5.78714 12.0775 4.98287 11.9231 4.20695C11.7688 3.43102 11.3878 2.71829 10.8284 2.15888C10.269 1.59947 9.55629 1.21851 8.78036 1.06417C8.00444 0.909824 7.20017 0.989038 6.46927 1.29179C5.73836 1.59454 5.11365 2.10723 4.67412 2.76503C4.2346 3.42282 4 4.19618 4 4.98731C4.00106 6.04785 4.42283 7.06465 5.17274 7.81456C5.92266 8.56448 6.93946 8.98625 8 8.98731ZM8 2.32064C8.52742 2.32064 9.04299 2.47704 9.48152 2.77005C9.92005 3.06307 10.2618 3.47955 10.4637 3.96682C10.6655 4.45409 10.7183 4.99026 10.6154 5.50755C10.5125 6.02483 10.2586 6.49998 9.88562 6.87292C9.51268 7.24586 9.03752 7.49984 8.52024 7.60273C8.00296 7.70563 7.46678 7.65282 6.97951 7.45099C6.49224 7.24915 6.07577 6.90736 5.78275 6.46883C5.48973 6.0303 5.33333 5.51472 5.33333 4.98731C5.33333 4.28006 5.61428 3.60179 6.11438 3.10169C6.61448 2.60159 7.29276 2.32064 8 2.32064Z" fill="#404049"/>
<path d="M8 10.3206C6.40924 10.3224 4.88414 10.9551 3.75931 12.0799C2.63447 13.2048 2.00176 14.7299 2 16.3206C2 16.4974 2.07024 16.667 2.19526 16.792C2.32029 16.917 2.48986 16.9873 2.66667 16.9873C2.84348 16.9873 3.01305 16.917 3.13807 16.792C3.2631 16.667 3.33333 16.4974 3.33333 16.3206C3.33333 15.0829 3.825 13.896 4.70017 13.0208C5.57534 12.1456 6.76232 11.654 8 11.654C9.23768 11.654 10.4247 12.1456 11.2998 13.0208C12.175 13.896 12.6667 15.0829 12.6667 16.3206C12.6667 16.4974 12.7369 16.667 12.8619 16.792C12.987 16.917 13.1565 16.9873 13.3333 16.9873C13.5101 16.9873 13.6797 16.917 13.8047 16.792C13.9298 16.667 14 16.4974 14 16.3206C13.9982 14.7299 13.3655 13.2048 12.2407 12.0799C11.1159 10.9551 9.59076 10.3224 8 10.3206Z" fill="#404049"/>
</g>
<defs>
<clipPath id="clip0_1809_1508">
<rect width="16" height="16" fill="white" transform="translate(0 0.987305)"/>
</clipPath>
</defs>
</svg>
