<svg width="80" height="80" viewBox="0 0 80 80" fill="none" xmlns="http://www.w3.org/2000/svg">
<path d="M2.5 25H35L37.5 30H5L2.5 25ZM5.83333 35H38.3333L40.8333 40H8.33333L5.83333 35ZM60 61.6667C62.7667 61.6667 65 59.4333 65 56.6667C65 53.9 62.7667 51.6667 60 51.6667C57.2333 51.6667 55 53.9 55 56.6667C55 59.4333 57.2333 61.6667 60 61.6667ZM65 31.6667H56.6667V40H71.5333L65 31.6667ZM26.6667 61.6667C29.4333 61.6667 31.6667 59.4333 31.6667 56.6667C31.6667 53.9 29.4333 51.6667 26.6667 51.6667C23.9 51.6667 21.6667 53.9 21.6667 56.6667C21.6667 59.4333 23.9 61.6667 26.6667 61.6667ZM66.6667 26.6667L76.6667 40V56.6667H70C70 62.2 65.5333 66.6667 60 66.6667C54.4667 66.6667 50 62.2 50 56.6667H36.6667C36.6667 62.2 32.1667 66.6667 26.6667 66.6667C21.1333 66.6667 16.6667 62.2 16.6667 56.6667H10V45H16.6667V50H19.2C21.0333 47.9667 23.7 46.6667 26.6667 46.6667C29.6333 46.6667 32.3 47.9667 34.1333 50H50V20H10C10 16.3 12.9667 13.3333 16.6667 13.3333H56.6667V26.6667H66.6667Z" fill="#404049"/>
</svg>
