<svg width="16" height="16" viewBox="0 0 16 16" fill="none" xmlns="http://www.w3.org/2000/svg">
<path d="M2 2V3.828L0.5 5.828V6C0.5 6.8225 1.1775 7.5 2 7.5V14H14V7.5C14.8225 7.5 15.5 6.8225 15.5 6V5.828L14 3.828V2H2ZM3 3H13V3.5H3V3ZM2.75 4.5H13.25L14.453 6.1095C14.3985 6.326 14.2345 6.5 14 6.5C13.7225 6.5 13.5 6.2775 13.5 6H12.5C12.5 6.2775 12.2775 6.5 12 6.5C11.7225 6.5 11.5 6.2775 11.5 6H10.5C10.5 6.2775 10.2775 6.5 10 6.5C9.7225 6.5 9.5 6.2775 9.5 6H8.5C8.5 6.2775 8.2775 6.5 8 6.5C7.7225 6.5 7.5 6.2775 7.5 6H6.5C6.5 6.2775 6.2775 6.5 6 6.5C5.7225 6.5 5.5 6.2775 5.5 6H4.5C4.5 6.2775 4.2775 6.5 4 6.5C3.7225 6.5 3.5 6.2775 3.5 6H2.5C2.5 6.2775 2.2775 6.5 2 6.5C1.7655 6.5 1.6015 6.326 1.547 6.1095L2.75 4.5ZM3 7.1095C3.2655 7.3495 3.617 7.5 4 7.5C4.383 7.5 4.7345 7.3495 5 7.1095C5.2655 7.3495 5.617 7.5 6 7.5C6.383 7.5 6.7345 7.3495 7 7.1095C7.2655 7.3495 7.617 7.5 8 7.5C8.383 7.5 8.7345 7.3495 9 7.1095C9.2655 7.3495 9.617 7.5 10 7.5C10.383 7.5 10.7345 7.3495 11 7.1095C11.2655 7.3495 11.617 7.5 12 7.5C12.383 7.5 12.7345 7.3495 13 7.1095V10.5H3V7.1095ZM3 11.5H13V13H3V11.5Z" fill="#383838"/>
</svg>
