<svg width="80" height="80" viewBox="0 0 80 80" fill="none" xmlns="http://www.w3.org/2000/svg">
<g clip-path="url(#clip0_129_375)">
<path d="M80 70H71.1328C72.3828 71.3802 73.3333 72.9167 73.9844 74.6094C74.6354 76.3021 74.974 78.099 75 80H70C70 78.6198 69.7396 77.3307 69.2188 76.1328C68.6979 74.9349 67.9818 73.8672 67.0703 72.9297C66.1589 71.9922 65.1042 71.276 63.9062 70.7812C62.7083 70.2865 61.4062 70.026 60 70C58.6198 70 57.3307 70.2604 56.1328 70.7812C54.9349 71.3021 53.8672 72.0182 52.9297 72.9297C51.9922 73.8411 51.276 74.8958 50.7812 76.0938C50.2865 77.2917 50.026 78.5938 50 80H45C45 78.6198 44.7396 77.3307 44.2188 76.1328C43.6979 74.9349 42.9818 73.8672 42.0703 72.9297C41.1589 71.9922 40.1042 71.276 38.9062 70.7812C37.7083 70.2865 36.4062 70.026 35 70C33.6198 70 32.3307 70.2604 31.1328 70.7812C29.9349 71.3021 28.8672 72.0182 27.9297 72.9297C26.9922 73.8411 26.276 74.8958 25.7812 76.0938C25.2865 77.2917 25.026 78.5938 25 80H20C20 78.6458 20.1823 77.3177 20.5469 76.0156C20.9115 74.7135 21.4193 73.5026 22.0703 72.3828C22.7214 71.263 23.5417 70.2214 24.5312 69.2578C25.5208 68.2943 26.6016 67.5 27.7734 66.875C26.888 65.9635 26.2109 64.9089 25.7422 63.7109C25.2734 62.513 25.026 61.276 25 60C25 58.2031 25.4427 56.5495 26.3281 55.0391C27.2135 53.5286 28.4375 52.3177 30 51.4062V40C30 39.2188 30.1693 38.4766 30.5078 37.7734C30.8464 37.0703 31.3411 36.4844 31.9922 36.0156C30.5599 34.1146 28.8021 32.6432 26.7188 31.6016C24.6354 30.5599 22.3958 30.026 20 30C17.9167 30 15.9766 30.3906 14.1797 31.1719C12.3828 31.9531 10.7943 33.0208 9.41406 34.375C8.03385 35.7292 6.95312 37.3307 6.17188 39.1797C5.39062 41.0286 5 42.9688 5 45H0C0 43.099 0.260417 41.263 0.78125 39.4922C1.30208 37.7214 2.04427 36.0417 3.00781 34.4531C3.97135 32.8646 5.15625 31.4583 6.5625 30.2344C7.96875 29.0104 9.50521 27.9557 11.1719 27.0703C9.21875 25.6641 7.70833 23.9062 6.64062 21.7969C5.57292 19.6875 5.02604 17.4219 5 15C5 12.9427 5.39062 11.0026 6.17188 9.17969C6.95312 7.35677 8.02083 5.76823 9.375 4.41406C10.7292 3.0599 12.3177 1.97917 14.1406 1.17188C15.9635 0.364583 17.9167 -0.0260417 20 0C22.0573 0 23.9974 0.390625 25.8203 1.17188C27.6432 1.95312 29.2318 3.02083 30.5859 4.375C31.9401 5.72917 33.0208 7.33073 33.8281 9.17969C34.6354 11.0286 35.026 12.9688 35 15C35 17.4219 34.4661 19.6875 33.3984 21.7969C32.3307 23.9062 30.8073 25.6771 28.8281 27.1094C30.599 27.9948 32.2005 29.1016 33.6328 30.4297C35.0651 31.7578 36.2891 33.2812 37.3047 35H51.25C52.0573 35 52.7604 34.8828 53.3594 34.6484C53.9583 34.4141 54.5182 34.1016 55.0391 33.7109C55.5599 33.3203 56.0938 32.9167 56.6406 32.5C57.1875 32.0833 57.7865 31.6797 58.4375 31.2891C59.0885 30.8984 59.8438 30.599 60.7031 30.3906C61.5625 30.1823 62.5781 30.0521 63.75 30H75C75.7031 30 76.3542 30.1302 76.9531 30.3906C77.5521 30.651 78.0729 31.0026 78.5156 31.4453C78.9583 31.888 79.3229 32.4219 79.6094 33.0469C79.8958 33.6719 80.026 34.3229 80 35V70ZM20 25C21.3802 25 22.6693 24.7396 23.8672 24.2188C25.0651 23.6979 26.1328 22.9818 27.0703 22.0703C28.0078 21.1589 28.724 20.1042 29.2188 18.9062C29.7135 17.7083 29.974 16.4062 30 15C30 13.6198 29.7396 12.3307 29.2188 11.1328C28.6979 9.9349 27.9818 8.86719 27.0703 7.92969C26.1589 6.99219 25.1042 6.27604 23.9062 5.78125C22.7083 5.28646 21.4062 5.02604 20 5C18.6198 5 17.3307 5.26042 16.1328 5.78125C14.9349 6.30208 13.8672 7.01823 12.9297 7.92969C11.9922 8.84115 11.276 9.89583 10.7812 11.0938C10.2865 12.2917 10.026 13.5938 10 15C10 16.3802 10.2604 17.6693 10.7812 18.8672C11.3021 20.0651 12.0182 21.1328 12.9297 22.0703C13.8411 23.0078 14.8958 23.724 16.0938 24.2188C17.2917 24.7135 18.5938 24.974 20 25ZM35 65C35.7031 65 36.3542 64.8698 36.9531 64.6094C37.5521 64.349 38.0729 63.9974 38.5156 63.5547C38.9583 63.112 39.3229 62.5781 39.6094 61.9531C39.8958 61.3281 40.026 60.6771 40 60C40 59.2969 39.8698 58.6458 39.6094 58.0469C39.349 57.4479 38.9974 56.9271 38.5547 56.4844C38.112 56.0417 37.5781 55.6771 36.9531 55.3906C36.3281 55.1042 35.6771 54.974 35 55C34.2969 55 33.6458 55.1302 33.0469 55.3906C32.4479 55.651 31.9271 56.0026 31.4844 56.4453C31.0417 56.888 30.6771 57.4219 30.3906 58.0469C30.1042 58.6719 29.974 59.3229 30 60C30 60.7031 30.1302 61.3542 30.3906 61.9531C30.651 62.5521 31.0026 63.0729 31.4453 63.5156C31.888 63.9583 32.4219 64.3229 33.0469 64.6094C33.6719 64.8958 34.3229 65.026 35 65ZM60 65C60.7031 65 61.3542 64.8698 61.9531 64.6094C62.5521 64.349 63.0729 63.9974 63.5156 63.5547C63.9583 63.112 64.3229 62.5781 64.6094 61.9531C64.8958 61.3281 65.026 60.6771 65 60C65 59.2969 64.8698 58.6458 64.6094 58.0469C64.349 57.4479 63.9974 56.9271 63.5547 56.4844C63.112 56.0417 62.5781 55.6771 61.9531 55.3906C61.3281 55.1042 60.6771 54.974 60 55C59.2969 55 58.6458 55.1302 58.0469 55.3906C57.4479 55.651 56.9271 56.0026 56.4844 56.4453C56.0417 56.888 55.6771 57.4219 55.3906 58.0469C55.1042 58.6719 54.974 59.3229 55 60C55 60.7031 55.1302 61.3542 55.3906 61.9531C55.651 62.5521 56.0026 63.0729 56.4453 63.5156C56.888 63.9583 57.4219 64.3229 58.0469 64.6094C58.6719 64.8958 59.3229 65.026 60 65ZM75 45H63.75C62.5781 45 61.5625 44.8828 60.7031 44.6484C59.8438 44.4141 59.0885 44.1016 58.4375 43.7109C57.7865 43.3203 57.2005 42.9167 56.6797 42.5C56.1589 42.0833 55.625 41.6797 55.0781 41.2891C54.5312 40.8984 53.9583 40.599 53.3594 40.3906C52.7604 40.1823 52.0573 40.0521 51.25 40H35V50C36.3802 50 37.6693 50.2604 38.8672 50.7812C40.0651 51.3021 41.1328 52.0182 42.0703 52.9297C43.0078 53.8411 43.724 54.8958 44.2188 56.0938C44.7135 57.2917 44.974 58.5938 45 60C45 61.276 44.7656 62.513 44.2969 63.7109C43.8281 64.9089 43.138 65.9635 42.2266 66.875C44.388 68.0729 46.1458 69.6875 47.5 71.7188C48.8542 69.6875 50.612 68.0729 52.7734 66.875C51.888 65.9635 51.2109 64.9089 50.7422 63.7109C50.2734 62.513 50.026 61.276 50 60C50 58.6198 50.2604 57.3307 50.7812 56.1328C51.3021 54.9349 52.0182 53.8672 52.9297 52.9297C53.8411 51.9922 54.8958 51.276 56.0938 50.7812C57.2917 50.2865 58.5938 50.026 60 50C61.3802 50 62.6693 50.2604 63.8672 50.7812C65.0651 51.3021 66.1328 52.0182 67.0703 52.9297C68.0078 53.8411 68.724 54.8958 69.2188 56.0938C69.7135 57.2917 69.974 58.5938 70 60C70 60.8854 69.8828 61.7448 69.6484 62.5781C69.4141 63.4115 69.0625 64.2188 68.5938 65H75V45ZM75 35H63.75C63.151 35 62.6172 35.0651 62.1484 35.1953C61.6797 35.3255 61.237 35.4948 60.8203 35.7031C60.4036 35.9115 60 36.1719 59.6094 36.4844C59.2188 36.7969 58.8021 37.1354 58.3594 37.5C58.776 37.8646 59.1797 38.1901 59.5703 38.4766C59.9609 38.763 60.3776 39.0234 60.8203 39.2578C61.263 39.4922 61.7057 39.6745 62.1484 39.8047C62.5911 39.9349 63.125 40 63.75 40H75V35Z" fill="#404049"/>
</g>
<defs>
<clipPath id="clip0_129_375">
<rect width="80" height="80" fill="white"/>
</clipPath>
</defs>
</svg>
