<svg width="16" height="16" viewBox="0 0 16 16" fill="none" xmlns="http://www.w3.org/2000/svg">
<g clip-path="url(#clip0_157_864)">
<path d="M16 14H14.2266C14.4766 14.276 14.6667 14.5833 14.7969 14.9219C14.9271 15.2604 14.9948 15.6198 15 16H14C14 15.724 13.9479 15.4661 13.8438 15.2266C13.7396 14.987 13.5964 14.7734 13.4141 14.5859C13.2318 14.3984 13.0208 14.2552 12.7812 14.1562C12.5417 14.0573 12.2812 14.0052 12 14C11.724 14 11.4661 14.0521 11.2266 14.1562C10.987 14.2604 10.7734 14.4036 10.5859 14.5859C10.3984 14.7682 10.2552 14.9792 10.1562 15.2188C10.0573 15.4583 10.0052 15.7188 10 16H9C9 15.724 8.94792 15.4661 8.84375 15.2266C8.73958 14.987 8.59635 14.7734 8.41406 14.5859C8.23177 14.3984 8.02083 14.2552 7.78125 14.1562C7.54167 14.0573 7.28125 14.0052 7 14C6.72396 14 6.46615 14.0521 6.22656 14.1562C5.98698 14.2604 5.77344 14.4036 5.58594 14.5859C5.39844 14.7682 5.25521 14.9792 5.15625 15.2188C5.05729 15.4583 5.00521 15.7188 5 16H4C4 15.7292 4.03646 15.4635 4.10938 15.2031C4.18229 14.9427 4.28385 14.7005 4.41406 14.4766C4.54427 14.2526 4.70833 14.0443 4.90625 13.8516C5.10417 13.6589 5.32031 13.5 5.55469 13.375C5.3776 13.1927 5.24219 12.9818 5.14844 12.7422C5.05469 12.5026 5.00521 12.2552 5 12C5 11.6406 5.08854 11.3099 5.26562 11.0078C5.44271 10.7057 5.6875 10.4635 6 10.2812V8C6 7.84375 6.03385 7.69531 6.10156 7.55469C6.16927 7.41406 6.26823 7.29688 6.39844 7.20312C6.11198 6.82292 5.76042 6.52865 5.34375 6.32031C4.92708 6.11198 4.47917 6.00521 4 6C3.58333 6 3.19531 6.07812 2.83594 6.23438C2.47656 6.39062 2.15885 6.60417 1.88281 6.875C1.60677 7.14583 1.39062 7.46615 1.23438 7.83594C1.07812 8.20573 1 8.59375 1 9H0C0 8.61979 0.0520833 8.2526 0.15625 7.89844C0.260417 7.54427 0.408854 7.20833 0.601562 6.89062C0.794271 6.57292 1.03125 6.29167 1.3125 6.04688C1.59375 5.80208 1.90104 5.59115 2.23438 5.41406C1.84375 5.13281 1.54167 4.78125 1.32812 4.35938C1.11458 3.9375 1.00521 3.48438 1 3C1 2.58854 1.07812 2.20052 1.23438 1.83594C1.39062 1.47135 1.60417 1.15365 1.875 0.882812C2.14583 0.611979 2.46354 0.395833 2.82812 0.234375C3.19271 0.0729167 3.58333 -0.00520833 4 0C4.41146 0 4.79948 0.078125 5.16406 0.234375C5.52865 0.390625 5.84635 0.604167 6.11719 0.875C6.38802 1.14583 6.60417 1.46615 6.76562 1.83594C6.92708 2.20573 7.00521 2.59375 7 3C7 3.48438 6.89323 3.9375 6.67969 4.35938C6.46615 4.78125 6.16146 5.13542 5.76562 5.42188C6.11979 5.59896 6.4401 5.82031 6.72656 6.08594C7.01302 6.35156 7.25781 6.65625 7.46094 7H10.25C10.4115 7 10.5521 6.97656 10.6719 6.92969C10.7917 6.88281 10.9036 6.82031 11.0078 6.74219C11.112 6.66406 11.2188 6.58333 11.3281 6.5C11.4375 6.41667 11.5573 6.33594 11.6875 6.25781C11.8177 6.17969 11.9688 6.11979 12.1406 6.07812C12.3125 6.03646 12.5156 6.01042 12.75 6H15C15.1406 6 15.2708 6.02604 15.3906 6.07812C15.5104 6.13021 15.6146 6.20052 15.7031 6.28906C15.7917 6.3776 15.8646 6.48438 15.9219 6.60938C15.9792 6.73438 16.0052 6.86458 16 7V14ZM4 5C4.27604 5 4.53385 4.94792 4.77344 4.84375C5.01302 4.73958 5.22656 4.59635 5.41406 4.41406C5.60156 4.23177 5.74479 4.02083 5.84375 3.78125C5.94271 3.54167 5.99479 3.28125 6 3C6 2.72396 5.94792 2.46615 5.84375 2.22656C5.73958 1.98698 5.59635 1.77344 5.41406 1.58594C5.23177 1.39844 5.02083 1.25521 4.78125 1.15625C4.54167 1.05729 4.28125 1.00521 4 1C3.72396 1 3.46615 1.05208 3.22656 1.15625C2.98698 1.26042 2.77344 1.40365 2.58594 1.58594C2.39844 1.76823 2.25521 1.97917 2.15625 2.21875C2.05729 2.45833 2.00521 2.71875 2 3C2 3.27604 2.05208 3.53385 2.15625 3.77344C2.26042 4.01302 2.40365 4.22656 2.58594 4.41406C2.76823 4.60156 2.97917 4.74479 3.21875 4.84375C3.45833 4.94271 3.71875 4.99479 4 5ZM7 13C7.14062 13 7.27083 12.974 7.39062 12.9219C7.51042 12.8698 7.61458 12.7995 7.70312 12.7109C7.79167 12.6224 7.86458 12.5156 7.92188 12.3906C7.97917 12.2656 8.00521 12.1354 8 12C8 11.8594 7.97396 11.7292 7.92188 11.6094C7.86979 11.4896 7.79948 11.3854 7.71094 11.2969C7.6224 11.2083 7.51562 11.1354 7.39062 11.0781C7.26562 11.0208 7.13542 10.9948 7 11C6.85938 11 6.72917 11.026 6.60938 11.0781C6.48958 11.1302 6.38542 11.2005 6.29688 11.2891C6.20833 11.3776 6.13542 11.4844 6.07812 11.6094C6.02083 11.7344 5.99479 11.8646 6 12C6 12.1406 6.02604 12.2708 6.07812 12.3906C6.13021 12.5104 6.20052 12.6146 6.28906 12.7031C6.3776 12.7917 6.48438 12.8646 6.60938 12.9219C6.73438 12.9792 6.86458 13.0052 7 13ZM12 13C12.1406 13 12.2708 12.974 12.3906 12.9219C12.5104 12.8698 12.6146 12.7995 12.7031 12.7109C12.7917 12.6224 12.8646 12.5156 12.9219 12.3906C12.9792 12.2656 13.0052 12.1354 13 12C13 11.8594 12.974 11.7292 12.9219 11.6094C12.8698 11.4896 12.7995 11.3854 12.7109 11.2969C12.6224 11.2083 12.5156 11.1354 12.3906 11.0781C12.2656 11.0208 12.1354 10.9948 12 11C11.8594 11 11.7292 11.026 11.6094 11.0781C11.4896 11.1302 11.3854 11.2005 11.2969 11.2891C11.2083 11.3776 11.1354 11.4844 11.0781 11.6094C11.0208 11.7344 10.9948 11.8646 11 12C11 12.1406 11.026 12.2708 11.0781 12.3906C11.1302 12.5104 11.2005 12.6146 11.2891 12.7031C11.3776 12.7917 11.4844 12.8646 11.6094 12.9219C11.7344 12.9792 11.8646 13.0052 12 13ZM15 9H12.75C12.5156 9 12.3125 8.97656 12.1406 8.92969C11.9688 8.88281 11.8177 8.82031 11.6875 8.74219C11.5573 8.66406 11.4401 8.58333 11.3359 8.5C11.2318 8.41667 11.125 8.33594 11.0156 8.25781C10.9062 8.17969 10.7917 8.11979 10.6719 8.07812C10.5521 8.03646 10.4115 8.01042 10.25 8H7V10C7.27604 10 7.53385 10.0521 7.77344 10.1562C8.01302 10.2604 8.22656 10.4036 8.41406 10.5859C8.60156 10.7682 8.74479 10.9792 8.84375 11.2188C8.94271 11.4583 8.99479 11.7188 9 12C9 12.2552 8.95312 12.5026 8.85938 12.7422C8.76562 12.9818 8.6276 13.1927 8.44531 13.375C8.8776 13.6146 9.22917 13.9375 9.5 14.3438C9.77083 13.9375 10.1224 13.6146 10.5547 13.375C10.3776 13.1927 10.2422 12.9818 10.1484 12.7422C10.0547 12.5026 10.0052 12.2552 10 12C10 11.724 10.0521 11.4661 10.1562 11.2266C10.2604 10.987 10.4036 10.7734 10.5859 10.5859C10.7682 10.3984 10.9792 10.2552 11.2188 10.1562C11.4583 10.0573 11.7188 10.0052 12 10C12.276 10 12.5339 10.0521 12.7734 10.1562C13.013 10.2604 13.2266 10.4036 13.4141 10.5859C13.6016 10.7682 13.7448 10.9792 13.8438 11.2188C13.9427 11.4583 13.9948 11.7188 14 12C14 12.1771 13.9766 12.349 13.9297 12.5156C13.8828 12.6823 13.8125 12.8438 13.7188 13H15V9ZM15 7H12.75C12.6302 7 12.5234 7.01302 12.4297 7.03906C12.3359 7.0651 12.2474 7.09896 12.1641 7.14062C12.0807 7.18229 12 7.23438 11.9219 7.29688C11.8438 7.35938 11.7604 7.42708 11.6719 7.5C11.7552 7.57292 11.8359 7.63802 11.9141 7.69531C11.9922 7.7526 12.0755 7.80469 12.1641 7.85156C12.2526 7.89844 12.3411 7.9349 12.4297 7.96094C12.5182 7.98698 12.625 8 12.75 8H15V7Z" fill="#B5B5BA" fill-opacity="0.47451"/>
</g>
<defs>
<clipPath id="clip0_157_864">
<rect width="16" height="16" fill="white"/>
</clipPath>
</defs>
</svg>
