<svg width="140" height="110" viewBox="0 0 140 110" fill="none" xmlns="http://www.w3.org/2000/svg">
<path fill-rule="evenodd" clip-rule="evenodd" d="M69.6981 2.94283C69.7155 6.42041 70.3226 7.43402 72.3951 7.44207C85.3562 7.49102 99.2641 20.5104 101.496 34.6828L102.172 38.9764L105.602 39.4051C109.241 39.8611 108.834 40.441 104.367 41.1622C102.187 41.5141 102.178 41.5284 101.488 45.9105C99.2783 59.9441 84.9789 73.1079 71.9446 73.1079C70.5011 73.1079 70.3133 73.3979 69.941 76.2057C69.4224 80.1133 68.7248 80.1684 68.2174 76.3426L67.8246 73.3811L63.43 72.6891C49.5971 70.5113 36.2333 56.236 36.2333 43.6386C36.2333 41.5252 35.2438 40.9168 31.778 40.8995C28.8035 40.884 29.3543 39.8196 32.5568 39.3952C34.2699 39.1678 35.763 38.6443 35.8739 38.2323C35.9854 37.8203 36.4117 35.6915 36.8212 33.502C39.3379 20.0495 53.1652 7.49474 65.5229 7.44207C67.3661 7.43402 68.7601 7.12485 68.4503 2.74767C68.4503 1.91808 68.7291 1.23904 69.0699 1.23904C69.4106 1.23904 69.6932 2.00544 69.6981 2.94283ZM60.2548 13.2244C50.1479 16.6685 42.8105 25.1168 40.9351 35.4697C40.4283 38.2664 40.6173 38.2986 48.7793 36.8005C55.0195 35.6555 55.0511 35.6078 51.6485 32.5336C50.2142 31.2381 49.6033 30.3775 50.2545 30.5696C56.6998 32.4729 56.846 32.2201 52.9167 25.9508C51.1888 23.1931 50.1436 21.1585 50.5934 21.4286C51.0438 21.6994 53.3238 23.1392 55.6601 24.6286C60.577 27.763 60.7727 27.7159 59.9568 23.5878L59.3459 20.4987L61.668 23.1051C64.7311 26.5437 64.4003 27.1552 66.8723 13.4753C67.2657 11.2994 66.0396 11.253 60.2548 13.2244ZM67.3066 20.2428C65.7422 30.1161 65.8804 29.8416 63.7522 27.3119C61.7622 24.9477 61.5472 25.0518 62.2238 28.0523C62.8619 30.8831 62.7163 30.8887 58.7084 28.1899C54.0679 25.0648 54.0598 25.2005 58.4822 32.1631L59.432 33.6587L56.6614 33.2448L53.8907 32.831L55.9098 34.5372C58.7319 36.9225 58.8701 36.842 49.244 38.4126C37.6031 40.3115 37.696 40.5835 50.638 42.4992C58.6681 43.6875 58.7846 43.7687 55.9185 46.18L53.9198 47.8621L56.5381 47.4198C59.7015 46.8857 59.696 46.8392 56.9693 51.1018C54.3925 55.1302 54.4687 55.1804 58.8887 52.3527C62.6438 49.9507 62.9418 49.8385 62.5967 50.9587C62.4654 51.3849 62.1754 52.5695 61.9518 53.5918L61.5447 55.4505L63.6481 53.4227L65.7515 51.3942L66.785 57.4498C67.3537 60.7799 67.9962 64.69 68.2136 66.1379C68.9701 71.1811 69.5135 69.9891 71.2501 59.4776C72.7191 50.5857 72.62 50.7586 74.7878 53.3019L76.6198 55.4505L76.1775 52.6972L75.7357 49.9438L77.4606 51.0739C83.9529 55.3278 84.189 55.2845 81.0738 50.4147L78.8273 46.9031L81.5385 47.299L84.2491 47.6949L82.1296 45.8628C79.629 43.7018 79.217 43.9099 89.5135 42.1299C100.344 40.257 100.343 40.2514 88.7242 38.345L80.199 36.9461L82.2244 34.8464L84.2491 32.7461L82.3904 33.1531C81.3681 33.3768 80.1835 33.6668 79.7573 33.7981C78.6371 34.1432 78.7493 33.8452 81.1513 30.09C83.7534 26.0226 83.8327 25.5425 81.6692 26.96C80.7616 27.5548 79.0566 28.6093 77.88 29.3038L75.7413 30.5659L76.1923 27.8968L76.6428 25.2271L74.7661 27.3281L72.8888 29.429L72.532 27.8801C72.1931 26.4074 69.6894 12.3967 69.6894 11.9729C69.6894 9.09568 68.319 13.852 67.3066 20.2428ZM72.2371 18.3562C73.6001 26.3572 73.5877 26.343 76.4718 23.1051L78.7939 20.4987L78.183 23.5878C77.367 27.7159 77.5628 27.763 82.4796 24.6286C84.816 23.1392 87.0904 21.7025 87.534 21.4361C87.9776 21.1703 87.047 22.9701 85.4659 25.4366C81.1339 32.1947 81.282 32.515 87.8431 30.5832C88.4565 30.4029 87.7614 31.3719 86.298 32.7368C83.0366 35.7788 82.9034 35.65 90.6324 36.9337C98.1433 38.1809 97.748 38.4095 96.5987 33.4834C94.3522 23.8517 86.9646 16.0465 77.214 13.0014C70.6851 10.9624 70.9323 10.6966 72.2371 18.3562ZM71.9533 30.9289C72.0741 31.0721 72.8721 30.5324 73.7265 29.7295L75.2803 28.2698L74.8714 30.3143C74.4167 32.5893 75.0387 32.4809 79.2096 29.5579L80.9846 28.3132L80.2058 29.8001C79.7771 30.6185 78.8781 32.0702 78.2078 33.0274C76.7016 35.1766 76.9383 35.453 79.6433 34.7076L81.7708 34.1209L79.9363 35.6196C77.5709 37.5526 77.5752 37.5551 85.2038 38.7862C93.8213 40.1771 93.8473 40.4484 85.4907 41.8065C77.8366 43.05 77.5244 43.239 79.9549 45.1509L81.5466 46.403L79.2697 46.0332L76.9928 45.6639L78.4958 48.079C79.323 49.4073 80.2195 50.8651 80.4883 51.3193C80.7572 51.7728 79.901 51.4741 78.5857 50.6557C74.2141 47.9346 74.4532 47.9693 74.7661 50.1043L75.0536 52.0596L73.7253 50.8118C71.8046 49.0077 71.8622 48.8937 70.6188 56.9975C69.2675 65.8101 69.1783 65.8083 67.7676 56.9362C66.5154 49.0622 66.3389 48.7165 64.6394 50.8131L63.3916 52.3527L63.7373 50.3391C64.1376 48.0034 63.9505 47.9228 61.7306 49.4767C57.5275 52.4196 56.9959 52.3955 59.0863 49.3578C61.471 45.8913 61.4759 45.6391 59.1489 45.9805L57.2815 46.255L58.5293 44.9266C60.3589 42.9787 60.3855 42.993 52.6429 41.7793C44.2838 40.4683 44.3092 40.1851 52.9105 38.8178C60.3391 37.6369 60.3669 37.622 58.792 35.8482C57.6099 34.5168 57.6105 34.5156 59.3118 34.829C61.4326 35.22 61.4313 35.1977 59.0931 31.3979L57.1706 28.2735L58.9382 29.411C59.9103 30.0368 61.256 30.924 61.9282 31.3824C63.7733 32.6426 64.1196 32.4109 63.6946 30.2034L63.3067 28.1899L64.5861 29.7388C66.3153 31.8323 66.4535 31.5658 67.8475 23.4707C68.5154 19.5916 69.0897 16.2788 69.1238 16.1085C69.1585 15.9381 69.7595 19.1443 70.4602 23.2334C71.1609 27.3225 71.8325 30.7852 71.9533 30.9289ZM40.9283 44.4638C42.8743 55.4288 50.5321 64.1782 61.0156 67.4123C64.6704 68.5393 66.9157 68.5864 66.7936 67.5319C66.7341 67.0207 66.21 63.8635 65.6282 60.5154L64.57 54.4288L62.1011 56.798L59.6315 59.1679L60.0646 56.1394C60.5776 52.5497 60.6724 52.541 54.2352 56.6673C51.7687 58.2484 49.9689 59.179 50.2347 58.7354C50.5011 58.2918 51.9378 56.0174 53.4273 53.681C56.5728 48.7475 56.5244 48.5666 52.286 49.4042L49.0965 50.0349L51.8034 47.6942C55.369 44.6107 55.991 44.9508 42.2479 42.4633C40.5534 42.1572 40.5262 42.1981 40.9283 44.4638ZM90.5407 43.3833C83.0372 44.781 83.0056 44.8139 86.3364 47.6942L89.0432 50.0349L85.8537 49.4042C81.6153 48.5666 81.567 48.7475 84.7125 53.681C86.2019 56.0174 87.6263 58.2714 87.8772 58.6908C88.1281 59.1096 86.0954 58.0644 83.3594 56.3674C77.1353 52.507 76.8788 52.6544 78.7517 59.0254C78.9289 59.6282 77.8329 58.8085 76.3162 57.2032L73.5586 54.2845L72.8058 58.8946C72.392 61.4299 71.8331 64.5363 71.5636 65.7977C70.9292 68.7691 70.9763 68.7945 75.3163 67.7822C86.7651 65.1112 97.5696 52.8942 97.5696 42.6194C97.5696 42.0345 98.0733 41.9794 90.5407 43.3833ZM102.887 97.4163C101.78 98.1672 101.473 97.9752 100.667 96.0316C99.4239 93.0292 93.662 93.207 92.5499 96.2825C91.9136 98.0421 91.6144 98.2837 90.7427 97.7391C89.8022 97.1518 90.0438 96.3587 93.1633 89.8112L96.6297 82.5357L100.093 89.748C102.376 94.5032 103.328 97.1158 102.887 97.4163ZM78.9828 92.9338C79.1724 92.9338 80.4468 90.6749 81.8155 87.9135L84.3042 82.8939L86.2719 89.9023C87.7124 95.0329 88.586 97.7391 87.3469 97.7391C85.1784 97.8903 86.0241 97.5378 85.1784 93.5534C84.1084 88.5102 83.6754 88.4718 81.3378 93.2126C78.8905 98.1747 79.0758 98.1765 76.6006 93.1569C74.3095 88.5108 73.9601 88.5864 72.6323 94.018L71.6863 97.8903C68.7601 98.021 69.2186 98.718 71.7086 89.8496L73.6614 82.8939L76.1502 87.9135C77.5188 90.6749 78.7932 92.9338 78.9828 92.9338ZM109.466 85.6447C111.687 88.2035 111.788 88.2481 112.647 87.048C115.269 83.3876 116.063 82.7055 116.829 83.4583C117.428 84.0468 117.095 84.8089 115.265 87.0418L112.941 89.8781L115.478 93.238C118.349 97.0402 118.338 97.0142 117.115 97.4832C116.534 97.7063 115.423 96.7478 113.969 94.7671L111.722 91.7065L109.264 94.8167C107.911 96.5279 106.539 97.7633 106.214 97.5625C105.208 96.9405 105.545 96.0266 107.792 93.2839C110.438 90.0553 110.437 90.341 107.805 86.7562C105.906 84.1689 105.607 83.0432 106.812 83.0116C107.01 83.006 108.205 84.1912 109.466 85.6447ZM123.901 85.4991C126.005 88.5356 126.123 88.5399 128.271 85.654C129.222 84.3765 130.079 83.2266 130.176 83.0989C130.273 82.9719 130.798 83.0388 131.342 83.2476C132.158 83.5605 131.901 84.1924 129.868 86.8578L127.404 90.0888L129.852 93.163C131.198 94.8538 132.205 96.5217 132.089 96.8699C131.609 98.3103 130.523 97.7602 128.624 95.1159C126.142 91.6606 125.996 91.6606 123.525 95.1023C122.423 96.6357 121.307 97.8903 121.044 97.8903C119.604 97.8903 120.048 96.2224 122.277 93.2702L124.788 89.9451L122.322 86.8473C120.042 83.9849 119.949 83.3083 121.803 83.0698C122.012 83.0432 122.956 84.1361 123.901 85.4991ZM95.4011 89.836L94.4402 91.6947H96.6403H98.8403L97.8794 89.836C97.3509 88.8137 96.7933 87.9773 96.6403 87.9773C96.4872 87.9773 95.9296 88.8137 95.4011 89.836Z" fill="#7C0000"/>
<path d="M21.6385 84.4587V85.1822H17.8304V97.8252H16.9736V85.1822H13.1655V84.4587H21.6385ZM29.6378 97.9775C28.4065 97.9775 27.2958 97.6919 26.3057 97.1207C25.3156 96.5368 24.5413 95.7244 23.9827 94.6835C23.4242 93.6426 23.145 92.4684 23.145 91.161C23.145 89.8408 23.4242 88.6667 23.9827 87.6385C24.5413 86.5976 25.3156 85.7915 26.3057 85.2203C27.2958 84.6364 28.4065 84.3445 29.6378 84.3445C30.8691 84.3445 31.9798 84.6364 32.9699 85.2203C33.96 85.7915 34.7343 86.5976 35.2929 87.6385C35.8514 88.6667 36.1306 89.8408 36.1306 91.161C36.1306 92.4684 35.8514 93.6426 35.2929 94.6835C34.7343 95.7244 33.96 96.5368 32.9699 97.1207C31.9798 97.6919 30.8691 97.9775 29.6378 97.9775ZM29.6378 97.2159C30.6914 97.2159 31.6434 96.9684 32.4939 96.4733C33.3444 95.9783 34.0108 95.2738 34.4931 94.3598C34.9882 93.4459 35.2357 92.3796 35.2357 91.161C35.2357 89.9297 34.9882 88.8571 34.4931 87.9431C34.0108 87.0292 33.3444 86.3247 32.4939 85.8296C31.6434 85.3346 30.6914 85.087 29.6378 85.087C28.5842 85.087 27.6322 85.3346 26.7817 85.8296C25.9312 86.3247 25.2585 87.0292 24.7634 87.9431C24.2684 88.8571 24.0208 89.9297 24.0208 91.161C24.0208 92.3796 24.2684 93.4459 24.7634 94.3598C25.2585 95.2738 25.9312 95.9783 26.7817 96.4733C27.6322 96.9684 28.5842 97.2159 29.6378 97.2159ZM46.1086 84.4587V85.1822H42.3005V97.8252H41.4437V85.1822H37.6356V84.4587H46.1086ZM55.7264 94.3979H49.3859L48.1101 97.8252H47.1771L52.0896 84.7634H53.0416L57.9351 97.8252H57.0021L55.7264 94.3979ZM55.4598 93.6743L52.5656 85.8868L49.6524 93.6743H55.4598ZM60.9426 97.1017H65.9122V97.8252H60.0858V84.4587H60.9426V97.1017Z" fill="#7C0000"/>
<path d="M44.0897 103.669V107.987H43.5259V103.669H44.0897ZM49.4309 103.7V107.987H48.8671V104.79L47.4421 107.987H47.0456L45.6144 104.784V107.987H45.0506V103.7H45.6578L47.2438 107.244L48.8299 103.7H49.4309ZM53.2742 104.933C53.2742 105.292 53.1503 105.592 52.9024 105.831C52.6587 106.067 52.2849 106.184 51.781 106.184H50.9508V107.987H50.387V103.669H51.781C52.2684 103.669 52.6381 103.787 52.89 104.022C53.1461 104.258 53.2742 104.561 53.2742 104.933ZM51.781 105.72C52.0949 105.72 52.3262 105.652 52.4749 105.515C52.6236 105.379 52.698 105.185 52.698 104.933C52.698 104.4 52.3923 104.134 51.781 104.134H50.9508V105.72H51.781ZM55.9327 108.031C55.5321 108.031 55.1665 107.938 54.8361 107.752C54.5057 107.562 54.2434 107.3 54.0492 106.965C53.8592 106.626 53.7642 106.246 53.7642 105.825C53.7642 105.404 53.8592 105.026 54.0492 104.691C54.2434 104.353 54.5057 104.09 54.8361 103.904C55.1665 103.714 55.5321 103.619 55.9327 103.619C56.3375 103.619 56.7051 103.714 57.0355 103.904C57.366 104.09 57.6262 104.35 57.8162 104.685C58.0062 105.02 58.1012 105.4 58.1012 105.825C58.1012 106.25 58.0062 106.63 57.8162 106.965C57.6262 107.3 57.366 107.562 57.0355 107.752C56.7051 107.938 56.3375 108.031 55.9327 108.031ZM55.9327 107.541C56.2342 107.541 56.5048 107.471 56.7443 107.331C56.988 107.19 57.178 106.99 57.3143 106.73C57.4548 106.469 57.525 106.168 57.525 105.825C57.525 105.478 57.4548 105.177 57.3143 104.92C57.178 104.66 56.9901 104.46 56.7505 104.32C56.511 104.179 56.2384 104.109 55.9327 104.109C55.6271 104.109 55.3544 104.179 55.1149 104.32C54.8753 104.46 54.6853 104.66 54.5449 104.92C54.4086 105.177 54.3404 105.478 54.3404 105.825C54.3404 106.168 54.4086 106.469 54.5449 106.73C54.6853 106.99 54.8753 107.19 55.1149 107.331C55.3586 107.471 55.6312 107.541 55.9327 107.541ZM61.1192 107.987L60.0908 106.222H59.4093V107.987H58.8455V103.669H60.2395C60.5658 103.669 60.8404 103.725 61.0635 103.836C61.2906 103.948 61.46 104.099 61.5715 104.289C61.683 104.479 61.7388 104.695 61.7388 104.939C61.7388 105.236 61.6521 105.499 61.4786 105.726C61.3092 105.953 61.0531 106.104 60.7103 106.178L61.7946 107.987H61.1192ZM59.4093 105.769H60.2395C60.5451 105.769 60.7743 105.695 60.9272 105.546C61.08 105.393 61.1564 105.191 61.1564 104.939C61.1564 104.683 61.08 104.485 60.9272 104.344C60.7785 104.204 60.5492 104.134 60.2395 104.134H59.4093V105.769ZM65.2728 103.669V104.127H64.0956V107.987H63.5318V104.127H62.3484V103.669H65.2728ZM70.9331 107.987L70.3693 107.417C70.1587 107.636 69.9336 107.799 69.694 107.907C69.4545 108.01 69.1839 108.062 68.8824 108.062C68.585 108.062 68.3207 108.008 68.0894 107.901C67.8622 107.793 67.6846 107.64 67.5566 107.442C67.4326 107.244 67.3707 107.013 67.3707 106.748C67.3707 106.447 67.4554 106.182 67.6247 105.955C67.7982 105.724 68.0522 105.542 68.3868 105.41C68.2546 105.253 68.1596 105.108 68.1018 104.976C68.0439 104.844 68.015 104.7 68.015 104.543C68.015 104.361 68.0605 104.198 68.1513 104.053C68.2463 103.904 68.3806 103.789 68.554 103.706C68.7275 103.624 68.9278 103.582 69.155 103.582C69.3781 103.582 69.5722 103.626 69.7374 103.712C69.9026 103.799 70.0265 103.921 70.1091 104.078C70.1917 104.231 70.2289 104.402 70.2207 104.592H69.6569C69.661 104.423 69.6135 104.291 69.5144 104.196C69.4152 104.096 69.2872 104.047 69.1302 104.047C68.965 104.047 68.8308 104.094 68.7275 104.189C68.6284 104.28 68.5788 104.398 68.5788 104.543C68.5788 104.666 68.6119 104.786 68.678 104.902C68.7482 105.018 68.8638 105.16 69.0249 105.329L70.3136 106.624L70.4251 106.451L70.8464 105.745H71.4536L70.9455 106.624C70.8753 106.748 70.7927 106.878 70.6977 107.015L71.6704 107.987H70.9331ZM68.8824 107.578C69.1054 107.578 69.3058 107.535 69.4834 107.448C69.6651 107.362 69.8365 107.227 69.9976 107.046L68.7275 105.769C68.1988 105.972 67.9345 106.292 67.9345 106.73C67.9345 106.973 68.0212 107.176 68.1947 107.337C68.3723 107.498 68.6015 107.578 68.8824 107.578ZM74.4142 104.127V105.571H75.9879V106.036H74.4142V107.523H76.1737V107.987H73.8504V103.663H76.1737V104.127H74.4142ZM78.7926 105.831L80.1184 107.987H79.4803L78.4456 106.302L77.4605 107.987H76.8348L78.1544 105.831L76.8286 103.669H77.4605L78.5014 105.36L79.4927 103.669H80.1246L78.7926 105.831ZM83.762 104.933C83.762 105.292 83.6381 105.592 83.3903 105.831C83.1466 106.067 82.7728 106.184 82.2689 106.184H81.4387V107.987H80.8749V103.669H82.2689C82.7563 103.669 83.126 103.787 83.3779 104.022C83.634 104.258 83.762 104.561 83.762 104.933ZM82.2689 105.72C82.5828 105.72 82.8141 105.652 82.9628 105.515C83.1115 105.379 83.1858 105.185 83.1858 104.933C83.1858 104.4 82.8802 104.134 82.2689 104.134H81.4387V105.72H82.2689ZM86.4206 108.031C86.0199 108.031 85.6544 107.938 85.324 107.752C84.9935 107.562 84.7312 107.3 84.5371 106.965C84.3471 106.626 84.2521 106.246 84.2521 105.825C84.2521 105.404 84.3471 105.026 84.5371 104.691C84.7312 104.353 84.9935 104.09 85.324 103.904C85.6544 103.714 86.0199 103.619 86.4206 103.619C86.8254 103.619 87.193 103.714 87.5234 103.904C87.8538 104.09 88.114 104.35 88.304 104.685C88.494 105.02 88.589 105.4 88.589 105.825C88.589 106.25 88.494 106.63 88.304 106.965C88.114 107.3 87.8538 107.562 87.5234 107.752C87.193 107.938 86.8254 108.031 86.4206 108.031ZM86.4206 107.541C86.7221 107.541 86.9926 107.471 87.2322 107.331C87.4759 107.19 87.6659 106.99 87.8022 106.73C87.9426 106.469 88.0128 106.168 88.0128 105.825C88.0128 105.478 87.9426 105.177 87.8022 104.92C87.6659 104.66 87.478 104.46 87.2384 104.32C86.9988 104.179 86.7262 104.109 86.4206 104.109C86.1149 104.109 85.8423 104.179 85.6028 104.32C85.3632 104.46 85.1732 104.66 85.0328 104.92C84.8965 105.177 84.8283 105.478 84.8283 105.825C84.8283 106.168 84.8965 106.469 85.0328 106.73C85.1732 106.99 85.3632 107.19 85.6028 107.331C85.8464 107.471 86.1191 107.541 86.4206 107.541ZM91.6071 107.987L90.5786 106.222H89.8971V107.987H89.3333V103.669H90.7273C91.0536 103.669 91.3283 103.725 91.5513 103.836C91.7785 103.948 91.9479 104.099 92.0594 104.289C92.1709 104.479 92.2267 104.695 92.2267 104.939C92.2267 105.236 92.1399 105.499 91.9665 105.726C91.7971 105.953 91.541 106.104 91.1982 106.178L92.2824 107.987H91.6071ZM89.8971 105.769H90.7273C91.033 105.769 91.2622 105.695 91.415 105.546C91.5679 105.393 91.6443 105.191 91.6443 104.939C91.6443 104.683 91.5679 104.485 91.415 104.344C91.2664 104.204 91.0371 104.134 90.7273 104.134H89.8971V105.769ZM95.7606 103.669V104.127H94.5835V107.987H94.0197V104.127H92.8363V103.669H95.7606Z" fill="#7C0000"/>
<line x1="13.9297" y1="99.4392" x2="131.026" y2="99.4392" stroke="url(#paint0_linear_1809_1470)" stroke-width="0.619559"/>
<defs>
<linearGradient id="paint0_linear_1809_1470" x1="11.7612" y1="102.249" x2="132.897" y2="101.289" gradientUnits="userSpaceOnUse">
<stop stop-color="#7C0000" stop-opacity="0"/>
<stop offset="0.588542" stop-color="#7C0000"/>
<stop offset="1" stop-color="#7C0000" stop-opacity="0"/>
</linearGradient>
</defs>
</svg>
