<svg width="16" height="17" viewBox="0 0 16 17" fill="none" xmlns="http://www.w3.org/2000/svg">
<g clip-path="url(#clip0_1809_2500)">
<path d="M7.65067 10.9873C7.47386 10.9873 7.30429 11.0575 7.17926 11.1826C7.05424 11.3076 6.984 11.4772 6.984 11.654V13.654C6.984 14.1844 6.77329 14.6931 6.39821 15.0682C6.02314 15.4433 5.51443 15.654 4.984 15.654H3.33333C2.8029 15.654 2.29419 15.4433 1.91912 15.0682C1.54405 14.6931 1.33333 14.1844 1.33333 13.654V4.32064C1.33333 3.79021 1.54405 3.2815 1.91912 2.90642C2.29419 2.53135 2.8029 2.32064 3.33333 2.32064H4.984C5.51443 2.32064 6.02314 2.53135 6.39821 2.90642C6.77329 3.2815 6.984 3.79021 6.984 4.32064V6.32064C6.984 6.49745 7.05424 6.66702 7.17926 6.79204C7.30429 6.91707 7.47386 6.9873 7.65067 6.9873C7.82748 6.9873 7.99705 6.91707 8.12207 6.79204C8.2471 6.66702 8.31733 6.49745 8.31733 6.32064V4.32064C8.31627 3.43691 7.96475 2.58968 7.33985 1.96478C6.71496 1.33989 5.86773 0.988363 4.984 0.987305H3.33333C2.4496 0.988363 1.60237 1.33989 0.97748 1.96478C0.352588 2.58968 0.00105857 3.43691 0 4.32064L0 13.654C0.00105857 14.5377 0.352588 15.3849 0.97748 16.0098C1.60237 16.6347 2.4496 16.9862 3.33333 16.9873H4.984C5.86773 16.9862 6.71496 16.6347 7.33985 16.0098C7.96475 15.3849 8.31627 14.5377 8.31733 13.654V11.654C8.31733 11.4772 8.2471 11.3076 8.12207 11.1826C7.99705 11.0575 7.82748 10.9873 7.65067 10.9873Z" fill="#404049"/>
<path d="M15.2448 7.57336L12.1875 4.51603C12.126 4.45235 12.0524 4.40156 11.9711 4.36662C11.8898 4.33169 11.8023 4.31329 11.7138 4.31253C11.6252 4.31176 11.5375 4.32862 11.4555 4.36214C11.3736 4.39566 11.2992 4.44517 11.2366 4.50776C11.174 4.57036 11.1245 4.64479 11.0909 4.72672C11.0574 4.80865 11.0406 4.89644 11.0413 4.98496C11.0421 5.07348 11.0605 5.16096 11.0954 5.2423C11.1304 5.32363 11.1812 5.39719 11.2448 5.45869L14.0862 8.30069L4.00016 8.32069C3.82335 8.32069 3.65378 8.39093 3.52876 8.51595C3.40373 8.64098 3.3335 8.81055 3.3335 8.98736C3.3335 9.16417 3.40373 9.33374 3.52876 9.45876C3.65378 9.58379 3.82335 9.65403 4.00016 9.65403L14.1255 9.63336L11.2435 12.516C11.1798 12.5775 11.129 12.6511 11.0941 12.7324C11.0592 12.8138 11.0408 12.9012 11.04 12.9898C11.0392 13.0783 11.0561 13.1661 11.0896 13.248C11.1231 13.3299 11.1726 13.4044 11.2352 13.467C11.2978 13.5296 11.3723 13.5791 11.4542 13.6126C11.5361 13.6461 11.6239 13.663 11.7124 13.6622C11.801 13.6614 11.8884 13.643 11.9698 13.6081C12.0511 13.5732 12.1247 13.5224 12.1862 13.4587L15.2435 10.4014C15.6186 10.0265 15.8295 9.51796 15.8297 8.98763C15.83 8.45731 15.6196 7.94859 15.2448 7.57336Z" fill="#404049"/>
</g>
<defs>
<clipPath id="clip0_1809_2500">
<rect width="16" height="16" fill="white" transform="translate(0 0.987305)"/>
</clipPath>
</defs>
</svg>
