<svg width="16" height="17" viewBox="0 0 16 17" fill="none" xmlns="http://www.w3.org/2000/svg">
<g clip-path="url(#clip0_1809_1484)">
<path d="M16 5.65401V6.32068C16 6.68868 15.702 6.98735 15.3333 6.98735C14.9647 6.98735 14.6667 6.68868 14.6667 6.32068V5.65401C14.6667 4.55135 13.7693 3.65401 12.6667 3.65401H3.33333C2.23067 3.65401 1.33333 4.55135 1.33333 5.65401V12.3207C1.33333 13.4233 2.23067 14.3207 3.33333 14.3207H5.33333C5.702 14.3207 6 14.6193 6 14.9873C6 15.3553 5.702 15.654 5.33333 15.654H3.33333C1.49533 15.654 0 14.1587 0 12.3207V5.65401C0 3.81601 1.49533 2.32068 3.33333 2.32068H12.6667C14.5047 2.32068 16 3.81601 16 5.65401ZM10 6.98735H12.6667C13.0353 6.98735 13.3333 6.68868 13.3333 6.32068C13.3333 5.95268 13.0353 5.65401 12.6667 5.65401H10C9.63133 5.65401 9.33333 5.95268 9.33333 6.32068C9.33333 6.68868 9.63133 6.98735 10 6.98735ZM15.414 8.90668C15.7913 9.28401 16 9.78668 16 10.3207C16 10.8547 15.7913 11.3573 15.414 11.7353L10.9427 16.2067C10.4393 16.71 9.76933 16.988 9.05733 16.988H8C7.63133 16.988 7.33333 16.6893 7.33333 16.3213V15.264C7.33333 14.552 7.61067 13.882 8.11467 13.3787L12.586 8.90735C13.366 8.12735 14.634 8.12735 15.414 8.90735V8.90668ZM14.6667 10.3207C14.6667 10.1427 14.5973 9.97535 14.4713 9.84935C14.2107 9.58868 13.7893 9.58935 13.5287 9.84935L9.05733 14.3207C8.80933 14.5693 8.66667 14.9127 8.66667 15.2633V15.654H9.05733C9.41333 15.654 9.748 15.5153 10 15.2633L14.4713 10.792C14.5973 10.666 14.6667 10.4987 14.6667 10.3207ZM6 10.9873H4.488C4.25067 10.9873 4.02933 10.8593 3.91 10.654C3.72667 10.3347 3.31933 10.2247 2.99933 10.4107C2.68067 10.5953 2.57133 11.0027 2.75667 11.3213C3.11267 11.938 3.77667 12.3207 4.48867 12.3207H4.66733C4.66733 12.6887 4.96533 12.9873 5.334 12.9873C5.70267 12.9873 6.00067 12.6887 6.00067 12.3207C7.10333 12.3207 8.00067 11.4233 8.00067 10.3207C8.00067 9.41401 7.35133 8.64735 6.45733 8.49868L4.43 8.16068C4.18133 8.11935 4.00067 7.90601 4.00067 7.65401C4.00067 7.28668 4.29933 6.98735 4.66733 6.98735H6.17933C6.41667 6.98735 6.638 7.11535 6.75733 7.32068C6.94067 7.63935 7.34733 7.74868 7.668 7.56401C7.98667 7.37935 8.096 6.97201 7.91067 6.65335C7.55467 6.03668 6.89067 5.65335 6.17867 5.65335H6C6 5.28535 5.702 4.98668 5.33333 4.98668C4.96467 4.98668 4.66667 5.28535 4.66667 5.65335C3.564 5.65335 2.66667 6.55068 2.66667 7.65335C2.66667 8.56001 3.316 9.32668 4.21 9.47535L6.23733 9.81335C6.486 9.85468 6.66667 10.068 6.66667 10.32C6.66667 10.6873 6.368 10.9867 6 10.9867V10.9873ZM9.33333 8.98735C9.33333 9.35535 9.632 9.65401 10 9.65401C10.368 9.65401 10.6667 9.35535 10.6667 8.98735C10.6667 8.61935 10.368 8.32068 10 8.32068C9.632 8.32068 9.33333 8.61935 9.33333 8.98735Z" fill="#404049"/>
</g>
<defs>
<clipPath id="clip0_1809_1484">
<rect width="16" height="16" fill="white" transform="translate(0 0.987305)"/>
</clipPath>
</defs>
</svg>
