<svg width="16" height="17" viewBox="0 0 16 17" fill="none" xmlns="http://www.w3.org/2000/svg">
<g clip-path="url(#clip0_1809_1488)">
<path d="M10.6667 0.987305H5.33333C4.4496 0.988363 3.60237 1.33989 2.97748 1.96478C2.35259 2.58968 2.00106 3.43691 2 4.32064V16.3206C2.00009 16.4419 2.03326 16.5608 2.09592 16.6646C2.15858 16.7685 2.24837 16.8532 2.35563 16.9098C2.46288 16.9664 2.58353 16.9926 2.70459 16.9857C2.82565 16.9788 2.94254 16.939 3.04267 16.8706L4.44667 15.9113L5.85067 16.8706C5.96159 16.9466 6.09289 16.9872 6.22733 16.9872C6.36177 16.9872 6.49307 16.9466 6.604 16.8706L8.004 15.9113L9.404 16.8706C9.51499 16.9467 9.64642 16.9875 9.781 16.9875C9.91558 16.9875 10.047 16.9467 10.158 16.8706L11.558 15.912L12.958 16.87C13.0581 16.9381 13.1748 16.9778 13.2957 16.9846C13.4166 16.9914 13.5371 16.9652 13.6442 16.9087C13.7514 16.8523 13.8411 16.7677 13.9038 16.6641C13.9664 16.5605 13.9997 16.4417 14 16.3206V4.32064C13.9989 3.43691 13.6474 2.58968 13.0225 1.96478C12.3976 1.33989 11.5504 0.988363 10.6667 0.987305ZM12.6667 15.054L11.9333 14.5526C11.8223 14.4764 11.6907 14.4356 11.556 14.4356C11.4213 14.4356 11.2897 14.4764 11.1787 14.5526L9.77867 15.512L8.37867 14.5526C8.26767 14.4765 8.13625 14.4358 8.00167 14.4358C7.86709 14.4358 7.73566 14.4765 7.62467 14.5526L6.22467 15.512L4.82467 14.5526C4.71381 14.4768 4.58264 14.4363 4.44833 14.4363C4.31403 14.4363 4.18286 14.4768 4.072 14.5526L3.33333 15.054V4.32064C3.33333 3.79021 3.54405 3.2815 3.91912 2.90642C4.29419 2.53135 4.8029 2.32064 5.33333 2.32064H10.6667C11.1971 2.32064 11.7058 2.53135 12.0809 2.90642C12.456 3.2815 12.6667 3.79021 12.6667 4.32064V15.054Z" fill="#7C0000"/>
<path d="M10.666 6.32068H5.33268C4.96449 6.32068 4.66602 6.61916 4.66602 6.98735C4.66602 7.35554 4.96449 7.65401 5.33268 7.65401H10.666C11.0342 7.65401 11.3327 7.35554 11.3327 6.98735C11.3327 6.61916 11.0342 6.32068 10.666 6.32068Z" fill="#7C0000"/>
<path d="M9.33268 8.9873H5.33268C4.96449 8.9873 4.66602 9.28578 4.66602 9.65397C4.66602 10.0222 4.96449 10.3206 5.33268 10.3206H9.33268C9.70087 10.3206 9.99935 10.0222 9.99935 9.65397C9.99935 9.28578 9.70087 8.9873 9.33268 8.9873Z" fill="#7C0000"/>
</g>
<defs>
<clipPath id="clip0_1809_1488">
<rect width="16" height="16" fill="white" transform="translate(0 0.987305)"/>
</clipPath>
</defs>
</svg>
