<svg width="16" height="16" viewBox="0 0 16 16" fill="none" xmlns="http://www.w3.org/2000/svg">
<g clip-path="url(#clip0_157_851)">
<path d="M7.33333 4H5.33333C4.70467 4 4.39067 4 4.19533 4.19533C4 4.39067 4 4.70467 4 5.33333C4 5.962 4 6.276 4.19533 6.47133C4.39067 6.66667 4.70467 6.66667 5.33333 6.66667H7.33333C7.962 6.66667 8.276 6.66667 8.47133 6.47133C8.66667 6.276 8.66667 5.962 8.66667 5.33333C8.66667 4.70467 8.66667 4.39067 8.47133 4.19533C8.276 4 7.962 4 7.33333 4Z" stroke="#B5B5BA" stroke-opacity="0.47451"/>
<path d="M4.66683 11.3334H8.00016M11.3335 14.6667H1.3335M13.0002 2.66669L13.8222 3.32402C13.9142 3.39735 13.9602 3.43469 14.0022 3.47202C14.3962 3.82552 14.634 4.32081 14.6635 4.84935C14.6668 4.90535 14.6668 4.96402 14.6668 5.08135V12.3334C14.6668 12.5986 14.5615 12.8529 14.3739 13.0405C14.1864 13.228 13.932 13.3334 13.6668 13.3334C13.4016 13.3334 13.1473 13.228 12.9597 13.0405C12.7722 12.8529 12.6668 12.5986 12.6668 12.3334V12.286C12.6668 11.7594 12.2402 11.3334 11.7142 11.3334H10.6668" stroke="#B5B5BA" stroke-opacity="0.47451" stroke-linecap="round"/>
<path d="M14.6667 5.33334H13.6667C13.4015 5.33334 13.1471 5.4387 12.9596 5.62624C12.772 5.81377 12.6667 6.06813 12.6667 6.33334V7.94601C12.6667 8.15592 12.7328 8.3605 12.8555 8.53076C12.9783 8.70103 13.1515 8.82835 13.3507 8.89468L14.6667 9.33334M10.6667 14.6667V10M2 14.6667V12M2 9.33334V5.33334C2 3.44801 2 2.50468 2.586 1.91934C3.17133 1.33334 4.11467 1.33334 6 1.33334H6.66667C8.552 1.33334 9.49533 1.33334 10.0807 1.91934C10.6667 2.50468 10.6667 3.44801 10.6667 5.33334V7.33334" stroke="#B5B5BA" stroke-opacity="0.47451" stroke-linecap="round"/>
</g>
<defs>
<clipPath id="clip0_157_851">
<rect width="16" height="16" fill="white"/>
</clipPath>
</defs>
</svg>
