<svg width="80" height="80" viewBox="0 0 80 80" fill="none" xmlns="http://www.w3.org/2000/svg">
<path d="M36.6667 20H26.6667C23.5233 20 21.9533 20 20.9767 20.9767C20 21.9533 20 23.5233 20 26.6667C20 29.81 20 31.38 20.9767 32.3567C21.9533 33.3333 23.5233 33.3333 26.6667 33.3333H36.6667C39.81 33.3333 41.38 33.3333 42.3567 32.3567C43.3333 31.38 43.3333 29.81 43.3333 26.6667C43.3333 23.5233 43.3333 21.9533 42.3567 20.9767C41.38 20 39.81 20 36.6667 20Z" stroke="#404049" stroke-width="5"/>
<path d="M23.3332 56.6667H39.9998M56.6665 73.3333H6.6665M64.9998 13.3333L69.1098 16.62C69.5698 16.9867 69.7998 17.1733 70.0098 17.36C71.98 19.1275 73.1691 21.604 73.3165 24.2467C73.3332 24.5267 73.3332 24.82 73.3332 25.4067V61.6667C73.3332 62.9928 72.8064 64.2645 71.8687 65.2022C70.931 66.1399 69.6593 66.6667 68.3332 66.6667C67.0071 66.6667 65.7353 66.1399 64.7976 65.2022C63.86 64.2645 63.3332 62.9928 63.3332 61.6667V61.43C63.3332 58.7967 61.1998 56.6667 58.5698 56.6667H53.3332" stroke="#404049" stroke-width="5" stroke-linecap="round"/>
<path d="M73.3333 26.6667H68.3333C67.0072 26.6667 65.7355 27.1935 64.7978 28.1311C63.8601 29.0688 63.3333 30.3406 63.3333 31.6667V39.73C63.3334 40.7795 63.6638 41.8024 64.2776 42.6538C64.8914 43.5051 65.7576 44.1417 66.7533 44.4733L73.3333 46.6667M53.3333 73.3333V50M10 73.3333V60M10 46.6667V26.6667C10 17.24 10 12.5233 12.93 9.59667C15.8567 6.66667 20.5733 6.66667 30 6.66667H33.3333C42.76 6.66667 47.4767 6.66667 50.4033 9.59667C53.3333 12.5233 53.3333 17.24 53.3333 26.6667V36.6667" stroke="#404049" stroke-width="5" stroke-linecap="round"/>
</svg>
