<svg width="16" height="17" viewBox="0 0 16 17" fill="none" xmlns="http://www.w3.org/2000/svg">
<g clip-path="url(#clip0_1809_1492)">
<path d="M15.3333 15.654H3.33333C2.8029 15.654 2.29419 15.4433 1.91912 15.0682C1.54405 14.6931 1.33333 14.1844 1.33333 13.654V1.65397C1.33333 1.47716 1.2631 1.30759 1.13807 1.18257C1.01305 1.05754 0.843478 0.987305 0.666667 0.987305C0.489856 0.987305 0.320286 1.05754 0.195262 1.18257C0.0702379 1.30759 0 1.47716 0 1.65397L0 13.654C0.00105857 14.5377 0.352588 15.3849 0.97748 16.0098C1.60237 16.6347 2.4496 16.9862 3.33333 16.9873H15.3333C15.5101 16.9873 15.6797 16.9171 15.8047 16.792C15.9298 16.667 16 16.4974 16 16.3206C16 16.1438 15.9298 15.9743 15.8047 15.8492C15.6797 15.7242 15.5101 15.654 15.3333 15.654Z" fill="#404049"/>
<path d="M4.00065 14.3207C4.17746 14.3207 4.34703 14.2504 4.47206 14.1254C4.59708 14.0004 4.66732 13.8308 4.66732 13.654V8.98735C4.66732 8.81053 4.59708 8.64097 4.47206 8.51594C4.34703 8.39092 4.17746 8.32068 4.00065 8.32068C3.82384 8.32068 3.65427 8.39092 3.52925 8.51594C3.40422 8.64097 3.33398 8.81053 3.33398 8.98735V13.654C3.33398 13.8308 3.40422 14.0004 3.52925 14.1254C3.65427 14.2504 3.82384 14.3207 4.00065 14.3207Z" fill="#404049"/>
<path d="M6.66602 7.65397V13.654C6.66602 13.8308 6.73625 14.0004 6.86128 14.1254C6.9863 14.2504 7.15587 14.3206 7.33268 14.3206C7.50949 14.3206 7.67906 14.2504 7.80409 14.1254C7.92911 14.0004 7.99935 13.8308 7.99935 13.654V7.65397C7.99935 7.47716 7.92911 7.30759 7.80409 7.18257C7.67906 7.05754 7.50949 6.9873 7.33268 6.9873C7.15587 6.9873 6.9863 7.05754 6.86128 7.18257C6.73625 7.30759 6.66602 7.47716 6.66602 7.65397Z" fill="#404049"/>
<path d="M10 9.65397V13.654C10 13.8308 10.0702 14.0004 10.1953 14.1254C10.3203 14.2504 10.4899 14.3206 10.6667 14.3206C10.8435 14.3206 11.013 14.2504 11.1381 14.1254C11.2631 14.0004 11.3333 13.8308 11.3333 13.654V9.65397C11.3333 9.47716 11.2631 9.30759 11.1381 9.18257C11.013 9.05754 10.8435 8.9873 10.6667 8.9873C10.4899 8.9873 10.3203 9.05754 10.1953 9.18257C10.0702 9.30759 10 9.47716 10 9.65397Z" fill="#404049"/>
<path d="M13.334 6.98735V13.654C13.334 13.8308 13.4042 14.0004 13.5292 14.1254C13.6543 14.2504 13.8238 14.3207 14.0007 14.3207C14.1775 14.3207 14.347 14.2504 14.4721 14.1254C14.5971 14.0004 14.6673 13.8308 14.6673 13.654V6.98735C14.6673 6.81053 14.5971 6.64097 14.4721 6.51594C14.347 6.39092 14.1775 6.32068 14.0007 6.32068C13.8238 6.32068 13.6543 6.39092 13.5292 6.51594C13.4042 6.64097 13.334 6.81053 13.334 6.98735Z" fill="#404049"/>
<path d="M4.00051 6.98729C4.17731 6.98725 4.34685 6.91699 4.47184 6.79196L6.86251 4.40129C6.98958 4.28024 7.15835 4.21272 7.33384 4.21272C7.50934 4.21272 7.67811 4.28024 7.80518 4.40129L9.25318 5.84929C9.62823 6.22423 10.1368 6.43486 10.6672 6.43486C11.1975 6.43486 11.7061 6.22423 12.0812 5.84929L15.8052 2.12529C15.9266 1.99956 15.9938 1.83116 15.9923 1.65636C15.9908 1.48156 15.9207 1.31435 15.7971 1.19075C15.6734 1.06714 15.5062 0.997028 15.3314 0.995509C15.1566 0.99399 14.9882 1.06119 14.8625 1.18262L11.1385 4.90596C11.0135 5.03094 10.844 5.10115 10.6672 5.10115C10.4904 5.10115 10.3209 5.03094 10.1958 4.90596L8.74784 3.45862C8.37279 3.08368 7.86417 2.87305 7.33384 2.87305C6.80351 2.87305 6.2949 3.08368 5.91984 3.45862L3.52918 5.84929C3.43597 5.94253 3.3725 6.0613 3.34679 6.1906C3.32107 6.31991 3.33428 6.45393 3.38472 6.57573C3.43517 6.69753 3.5206 6.80164 3.6302 6.87489C3.73981 6.94815 3.86868 6.98726 4.00051 6.98729Z" fill="#404049"/>
</g>
<defs>
<clipPath id="clip0_1809_1492">
<rect width="16" height="16" fill="white" transform="translate(0 0.987305)"/>
</clipPath>
</defs>
</svg>
