<svg width="71" height="69" viewBox="0 0 71 69" fill="none" xmlns="http://www.w3.org/2000/svg">
<g clip-path="url(#clip0_739_42)">
<path d="M15.9957 4.20431C16.4373 3.73039 16.6777 3.10357 16.6663 2.4559C16.6548 1.80823 16.3925 1.19028 15.9344 0.732234C15.4764 0.27419 14.8584 0.0118169 14.2108 0.00038949C13.5631 -0.0110379 12.9363 0.229373 12.4624 0.670973L5.89569 7.23764L4.32903 5.67097C3.85511 5.22937 3.22829 4.98896 2.58062 5.00039C1.93295 5.01182 1.315 5.27419 0.856955 5.73223C0.398912 6.19028 0.136538 6.80823 0.125111 7.4559C0.113684 8.10357 0.354094 8.73039 0.795694 9.20431L4.12903 12.5376C4.59778 13.0058 5.23319 13.2688 5.89569 13.2688C6.5582 13.2688 7.19361 13.0058 7.66236 12.5376L15.9957 4.20431ZM30.0624 49.9376C30.0624 51.0776 30.1524 52.201 30.3224 53.2943H25.8957C25.2623 53.2941 24.6526 53.0535 24.1897 52.6211C23.7269 52.1886 23.4454 51.5966 23.4023 50.9647C23.3591 50.3328 23.5574 49.708 23.9571 49.2166C24.3569 48.7253 24.9282 48.404 25.5557 48.3176L25.8957 48.2943H30.1224C30.0819 48.8411 30.0619 49.3893 30.0624 49.9376ZM51.729 28.271C55.8183 28.2643 59.8251 29.4204 63.2824 31.6043H64.229L64.569 31.581C65.1965 31.4946 65.7679 31.1733 66.1676 30.682C66.5673 30.1906 66.7656 29.5658 66.7224 28.9339C66.6793 28.302 66.3978 27.71 65.935 27.2775C65.4722 26.8451 64.8624 26.6045 64.229 26.6043H25.8957L25.5557 26.6276C24.9282 26.714 24.3569 27.0353 23.9571 27.5266C23.5574 28.018 23.3591 28.6428 23.4023 29.2747C23.4454 29.9066 23.7269 30.4986 24.1897 30.9311C24.6526 31.3635 25.2623 31.6041 25.8957 31.6043H40.1757C43.6329 29.4204 47.6398 28.2643 51.729 28.271ZM64.229 4.93764H25.8957L25.5557 4.96097C24.9282 5.04731 24.3569 5.36862 23.9571 5.85998C23.5574 6.35133 23.3591 6.9761 23.4023 7.60804C23.4454 8.23998 23.7269 8.83197 24.1897 9.2644C24.6526 9.69682 25.2623 9.93744 25.8957 9.93764H64.229L64.569 9.91431C65.1965 9.82797 65.7679 9.50666 66.1676 9.0153C66.5673 8.52395 66.7656 7.89918 66.7224 7.26724C66.6793 6.6353 66.3978 6.04331 65.935 5.61088C65.4722 5.17845 64.8624 4.93783 64.229 4.93764ZM15.9957 47.5376C16.2413 47.3088 16.4383 47.0328 16.575 46.7261C16.7116 46.4194 16.7851 46.0884 16.791 45.7527C16.7969 45.417 16.7352 45.0836 16.6094 44.7723C16.4837 44.461 16.2966 44.1782 16.0592 43.9408C15.8218 43.7034 15.539 43.5163 15.2277 43.3906C14.9164 43.2648 14.583 43.2031 14.2473 43.209C13.9116 43.2149 13.5806 43.2884 13.2739 43.425C12.9672 43.5617 12.6912 43.7587 12.4624 44.0043L5.89569 50.571L4.32903 49.0043C3.85511 48.5627 3.22829 48.3223 2.58062 48.3337C1.93295 48.3452 1.315 48.6075 0.856955 49.0656C0.398912 49.5236 0.136538 50.1416 0.125111 50.7892C0.113684 51.4369 0.354094 52.0637 0.795694 52.5376L4.12903 55.871C4.59778 56.3391 5.23319 56.6021 5.89569 56.6021C6.5582 56.6021 7.19361 56.3391 7.66236 55.871L15.9957 47.5376ZM15.9957 22.3376C16.4639 22.8064 16.7268 23.4418 16.7268 24.1043C16.7268 24.7668 16.4639 25.4022 15.9957 25.871L7.66236 34.2043C7.19361 34.6725 6.5582 34.9354 5.89569 34.9354C5.23319 34.9354 4.59778 34.6725 4.12903 34.2043L0.795694 30.871C0.550072 30.6421 0.353064 30.3661 0.216425 30.0594C0.0797846 29.7528 0.00631169 29.4217 0.000389072 29.086C-0.00553354 28.7504 0.0562149 28.4169 0.181952 28.1056C0.307688 27.7944 0.494837 27.5116 0.732233 27.2742C0.969629 27.0368 1.25241 26.8496 1.5637 26.7239C1.875 26.5982 2.20843 26.5364 2.5441 26.5423C2.87978 26.5483 3.21082 26.6217 3.51749 26.7584C3.82415 26.895 4.10015 27.092 4.32903 27.3376L5.89569 28.9043L12.4624 22.3376C12.9311 21.8695 13.5665 21.6065 14.229 21.6065C14.8915 21.6065 15.5269 21.8695 15.9957 22.3376ZM70.0624 49.9376C70.0624 45.0753 68.1308 40.4122 64.6927 36.974C61.2545 33.5358 56.5913 31.6043 51.729 31.6043C46.8667 31.6043 42.2036 33.5358 38.7654 36.974C35.3272 40.4122 33.3957 45.0753 33.3957 49.9376C33.3957 54.7999 35.3272 59.4631 38.7654 62.9013C42.2036 66.3394 46.8667 68.271 51.729 68.271C56.5913 68.271 61.2545 66.3394 64.6927 62.9013C68.1308 59.4631 70.0624 54.7999 70.0624 49.9376ZM53.3957 51.6043L53.399 59.9476C53.399 60.3897 53.2234 60.8136 52.9109 61.1262C52.5983 61.4387 52.1744 61.6143 51.7324 61.6143C51.2903 61.6143 50.8664 61.4387 50.5538 61.1262C50.2413 60.8136 50.0657 60.3897 50.0657 59.9476V51.6043H41.7157C41.2737 51.6043 40.8497 51.4287 40.5372 51.1162C40.2246 50.8036 40.049 50.3797 40.049 49.9376C40.049 49.4956 40.2246 49.0717 40.5372 48.7591C40.8497 48.4466 41.2737 48.271 41.7157 48.271H50.0624V39.9376C50.0624 39.4956 50.238 39.0717 50.5505 38.7591C50.8631 38.4466 51.287 38.271 51.729 38.271C52.1711 38.271 52.595 38.4466 52.9075 38.7591C53.2201 39.0717 53.3957 39.4956 53.3957 39.9376V48.271H61.719C62.1611 48.271 62.585 48.4466 62.8975 48.7591C63.2101 49.0717 63.3857 49.4956 63.3857 49.9376C63.3857 50.3797 63.2101 50.8036 62.8975 51.1162C62.585 51.4287 62.1611 51.6043 61.719 51.6043H53.3957Z" fill="white"/>
</g>
<defs>
<clipPath id="clip0_739_42">
<rect width="71" height="69" fill="white"/>
</clipPath>
</defs>
</svg>
