<svg width="16" height="16" viewBox="0 0 16 16" fill="none" xmlns="http://www.w3.org/2000/svg">
<path d="M11.3335 9.99999C10.8668 9.99999 10.4724 9.83888 10.1502 9.51666C9.82794 9.19443 9.66683 8.79999 9.66683 8.33332C9.66683 7.86666 9.82794 7.47221 10.1502 7.14999C10.4724 6.82777 10.8668 6.66666 11.3335 6.66666C11.8002 6.66666 12.1946 6.82777 12.5168 7.14999C12.8391 7.47221 13.0002 7.86666 13.0002 8.33332C13.0002 8.79999 12.8391 9.19443 12.5168 9.51666C12.1946 9.83888 11.8002 9.99999 11.3335 9.99999ZM8.00016 13.3333V12.4C8.00016 12.1333 8.06972 11.8862 8.20883 11.6587C8.34794 11.4311 8.54505 11.2671 8.80016 11.1667C9.20016 11 9.61416 10.8751 10.0422 10.792C10.4702 10.7089 10.9006 10.6671 11.3335 10.6667C11.7668 10.6667 12.1975 10.7084 12.6255 10.792C13.0535 10.8755 13.4673 11.0004 13.8668 11.1667C14.1224 11.2667 14.3197 11.4307 14.4588 11.6587C14.5979 11.8867 14.6673 12.1338 14.6668 12.4V13.3333H8.00016ZM6.66683 7.99999C5.9335 7.99999 5.30572 7.73888 4.7835 7.21666C4.26127 6.69443 4.00016 6.06666 4.00016 5.33332C4.00016 4.59999 4.26127 3.97221 4.7835 3.44999C5.30572 2.92777 5.9335 2.66666 6.66683 2.66666C7.40016 2.66666 8.02794 2.92777 8.55016 3.44999C9.07239 3.97221 9.3335 4.59999 9.3335 5.33332C9.3335 6.06666 9.07239 6.69443 8.55016 7.21666C8.02794 7.73888 7.40016 7.99999 6.66683 7.99999ZM1.3335 13.3333V11.4667C1.3335 11.0889 1.42794 10.7418 1.61683 10.4253C1.80572 10.1089 2.06683 9.8671 2.40016 9.69999C3.06683 9.36666 3.75861 9.1111 4.4755 8.93332C5.19238 8.75555 5.92283 8.66666 6.66683 8.66666C7.05572 8.66666 7.44461 8.69999 7.8335 8.76666C8.22239 8.83332 8.61127 8.9111 9.00016 8.99999L8.4335 9.56666L7.86683 10.1333C7.66683 10.0778 7.46683 10.0418 7.26683 10.0253C7.06683 10.0089 6.86683 10.0004 6.66683 9.99999C6.02239 9.99999 5.39172 10.0778 4.77483 10.2333C4.15794 10.3889 3.56639 10.6111 3.00016 10.9C2.88905 10.9555 2.80572 11.0333 2.75016 11.1333C2.69461 11.2333 2.66683 11.3444 2.66683 11.4667V12H6.66683V13.3333H1.3335ZM6.66683 6.66666C7.0335 6.66666 7.3475 6.53621 7.60883 6.27532C7.87016 6.01443 8.00061 5.70043 8.00016 5.33332C8.00016 4.96666 7.86972 4.65288 7.60883 4.39199C7.34794 4.1311 7.03394 4.00043 6.66683 3.99999C6.30016 3.99999 5.98639 4.13066 5.7255 4.39199C5.46461 4.65332 5.33394 4.9671 5.3335 5.33332C5.3335 5.69999 5.46416 6.01399 5.7255 6.27532C5.98683 6.53666 6.30061 6.6671 6.66683 6.66666Z" fill="#B5B5BA" fill-opacity="0.47451"/>
</svg>
