<svg width="80" height="80" viewBox="0 0 80 80" fill="none" xmlns="http://www.w3.org/2000/svg">
<path d="M56.6665 50C54.3332 50 52.3609 49.1944 50.7498 47.5833C49.1387 45.9722 48.3332 44 48.3332 41.6667C48.3332 39.3333 49.1387 37.3611 50.7498 35.75C52.3609 34.1389 54.3332 33.3333 56.6665 33.3333C58.9998 33.3333 60.9721 34.1389 62.5832 35.75C64.1943 37.3611 64.9998 39.3333 64.9998 41.6667C64.9998 44 64.1943 45.9722 62.5832 47.5833C60.9721 49.1944 58.9998 50 56.6665 50ZM39.9998 66.6667V62C39.9998 60.6667 40.3476 59.4311 41.0432 58.2933C41.7387 57.1556 42.7243 56.3355 43.9998 55.8333C45.9998 55 48.0698 54.3755 50.2098 53.96C52.3498 53.5444 54.5021 53.3355 56.6665 53.3333C58.8332 53.3333 60.9865 53.5422 63.1265 53.96C65.2665 54.3778 67.3354 55.0022 69.3332 55.8333C70.6109 56.3333 71.5976 57.1533 72.2932 58.2933C72.9887 59.4333 73.3354 60.6689 73.3332 62V66.6667H39.9998ZM33.3332 40C29.6665 40 26.5276 38.6944 23.9165 36.0833C21.3054 33.4722 19.9998 30.3333 19.9998 26.6667C19.9998 23 21.3054 19.8611 23.9165 17.25C26.5276 14.6389 29.6665 13.3333 33.3332 13.3333C36.9998 13.3333 40.1387 14.6389 42.7498 17.25C45.3609 19.8611 46.6665 23 46.6665 26.6667C46.6665 30.3333 45.3609 33.4722 42.7498 36.0833C40.1387 38.6944 36.9998 40 33.3332 40ZM6.6665 66.6667V57.3333C6.6665 55.4444 7.13873 53.7089 8.08317 52.1267C9.02761 50.5444 10.3332 49.3355 11.9998 48.5C15.3332 46.8333 18.7921 45.5555 22.3765 44.6667C25.9609 43.7778 29.6132 43.3333 33.3332 43.3333C35.2776 43.3333 37.2221 43.5 39.1665 43.8333C41.1109 44.1667 43.0554 44.5555 44.9998 45L42.1665 47.8333L39.3332 50.6667C38.3332 50.3889 37.3332 50.2089 36.3332 50.1267C35.3332 50.0444 34.3332 50.0022 33.3332 50C30.1109 50 26.9576 50.3889 23.8732 51.1667C20.7887 51.9444 17.8309 53.0555 14.9998 54.5C14.4443 54.7778 14.0276 55.1667 13.7498 55.6667C13.4721 56.1667 13.3332 56.7222 13.3332 57.3333V60H33.3332V66.6667H6.6665ZM33.3332 33.3333C35.1665 33.3333 36.7365 32.6811 38.0432 31.3767C39.3498 30.0722 40.0021 28.5022 39.9998 26.6667C39.9998 24.8333 39.3476 23.2644 38.0432 21.96C36.7387 20.6555 35.1687 20.0022 33.3332 20C31.4998 20 29.9309 20.6533 28.6265 21.96C27.3221 23.2667 26.6687 24.8356 26.6665 26.6667C26.6665 28.5 27.3198 30.07 28.6265 31.3767C29.9332 32.6833 31.5021 33.3356 33.3332 33.3333Z" fill="#404049"/>
</svg>
